<svg width="109" height="82" viewBox="0 0 109 82" fill="none" xmlns="http://www.w3.org/2000/svg">
<path fill-rule="evenodd" clip-rule="evenodd" d="M71.5382 18.9774V34.2335C71.5382 35.9093 72.8966 37.2678 74.5724 37.2678C76.2482 37.2678 77.6066 35.9093 77.6066 34.2335V13.9097C77.6066 12.7911 76.9912 11.7633 76.0052 11.2351L57.024 1.06662C54.3693 -0.355539 51.187 -0.35554 48.5323 1.06662L29.5511 11.2351C28.5651 11.7633 27.9497 12.7911 27.9497 13.9097V30.6333C27.9497 33.943 29.7316 37.0088 32.6292 38.6186L48.4631 47.4151C51.1386 48.9015 54.3779 48.9265 57.0759 47.4812L64.7045 43.3945C66.1817 42.6032 66.7376 40.7642 65.9463 39.287C65.155 37.8099 63.316 37.2539 61.8389 38.0452L54.2103 42.132C53.3317 42.6026 52.282 42.5947 51.4102 42.1103L35.5763 33.3138C34.6271 32.7864 34.0182 31.7642 34.0182 30.6333V18.9774L48.5323 26.7527C51.187 28.1749 54.3693 28.1749 57.024 26.7527L71.5382 18.9774ZM54.1584 6.41587C53.2938 5.95268 52.2626 5.95268 51.398 6.41587L37.4094 13.9097L51.398 21.4035C52.2626 21.8667 53.2938 21.8667 54.1584 21.4035L68.1469 13.9097L54.1584 6.41587Z" fill="url(#paint0_linear_961_11218)"/>
<path d="M74.5992 37.4499L76.6394 38.4878C78.133 39.2477 79.9598 38.6528 80.7196 37.1592C81.4795 35.6656 80.8846 33.8389 79.3911 33.079L76.2209 31.4663L76.1588 31.4381C75.1113 30.9633 73.9057 30.9914 72.8819 31.5136L69.8097 33.0804C68.3168 33.8418 67.7239 35.6692 68.4852 37.162C69.2466 38.6548 71.0739 39.2478 72.5668 38.4864L74.5992 37.4499Z" fill="#7D1D38"/>
<path d="M0.5 74.3336C0.5 73.3455 0.706646 72.4705 1.11994 71.7086C1.54539 70.9466 2.1167 70.3574 2.83389 69.9407C3.56323 69.5121 4.3655 69.2978 5.24071 69.2978C6.03083 69.2978 6.71762 69.4526 7.30109 69.7621C7.89672 70.0597 8.37079 70.4347 8.72331 70.8871V69.4586H10.8202V79.2978H8.72331V77.8336C8.37079 78.2978 7.89064 78.6847 7.28286 78.9943C6.67508 79.3038 5.9822 79.4586 5.20424 79.4586C4.34119 79.4586 3.55107 79.2443 2.83389 78.8157C2.1167 78.3752 1.54539 77.7681 1.11994 76.9943C0.706646 76.2086 0.5 75.3216 0.5 74.3336ZM8.72331 74.3693C8.72331 73.6907 8.57744 73.1014 8.2857 72.6014C8.00612 72.1014 7.63538 71.7205 7.17346 71.4586C6.71154 71.1966 6.21316 71.0657 5.67831 71.0657C5.14346 71.0657 4.64508 71.1966 4.18317 71.4586C3.72125 71.7086 3.34443 72.0836 3.05269 72.5836C2.77311 73.0716 2.63332 73.655 2.63332 74.3336C2.63332 75.0121 2.77311 75.6074 3.05269 76.1193C3.34443 76.6312 3.72125 77.024 4.18317 77.2978C4.65724 77.5597 5.15562 77.6907 5.67831 77.6907C6.21316 77.6907 6.71154 77.5597 7.17346 77.2978C7.63538 77.0359 8.00612 76.655 8.2857 76.155C8.57744 75.6431 8.72331 75.0478 8.72331 74.3693Z" fill="url(#paint1_linear_961_11218)"/>
<path d="M12.8575 74.3336C12.8575 73.3455 13.0641 72.4705 13.4774 71.7086C13.9029 70.9466 14.4742 70.3574 15.1914 69.9407C15.9207 69.5121 16.729 69.2978 17.6164 69.2978C18.2728 69.2978 18.9171 69.4407 19.5492 69.7264C20.1934 70.0002 20.7039 70.3693 21.0808 70.8336V66.0836H23.1776V79.2978H21.0808V77.8157C20.7404 78.2919 20.2663 78.6847 19.6586 78.9943C19.0629 79.3038 18.3761 79.4586 17.5982 79.4586C16.723 79.4586 15.9207 79.2443 15.1914 78.8157C14.4742 78.3752 13.9029 77.7681 13.4774 76.9943C13.0641 76.2086 12.8575 75.3216 12.8575 74.3336ZM21.0808 74.3693C21.0808 73.6907 20.9349 73.1014 20.6432 72.6014C20.3636 72.1014 19.9928 71.7205 19.5309 71.4586C19.069 71.1966 18.5706 71.0657 18.0358 71.0657C17.5009 71.0657 17.0025 71.1966 16.5406 71.4586C16.0787 71.7086 15.7019 72.0836 15.4102 72.5836C15.1306 73.0716 14.9908 73.655 14.9908 74.3336C14.9908 75.0121 15.1306 75.6074 15.4102 76.1193C15.7019 76.6312 16.0787 77.024 16.5406 77.2978C17.0147 77.5597 17.5131 77.6907 18.0358 77.6907C18.5706 77.6907 19.069 77.5597 19.5309 77.2978C19.9928 77.0359 20.3636 76.655 20.6432 76.155C20.9349 75.6431 21.0808 75.0478 21.0808 74.3693Z" fill="url(#paint2_linear_961_11218)"/>
<path d="M38.0696 69.2978C38.8597 69.2978 39.5647 69.4586 40.1846 69.78C40.8167 70.1014 41.309 70.5776 41.6616 71.2086C42.0262 71.8395 42.2086 72.6014 42.2086 73.4943V79.2978H40.1482V73.7978C40.1482 72.9169 39.9233 72.2443 39.4735 71.78C39.0238 71.3038 38.4099 71.0657 37.6319 71.0657C36.854 71.0657 36.234 71.3038 35.7721 71.78C35.3224 72.2443 35.0975 72.9169 35.0975 73.7978V79.2978H33.0371V73.7978C33.0371 72.9169 32.8122 72.2443 32.3625 71.78C31.9127 71.3038 31.2988 71.0657 30.5209 71.0657C29.7429 71.0657 29.123 71.3038 28.6611 71.78C28.2113 72.2443 27.9864 72.9169 27.9864 73.7978V79.2978H25.9078V69.4586H27.9864V70.5836C28.3268 70.1788 28.7583 69.8633 29.281 69.6371C29.8037 69.4109 30.3629 69.2978 30.9585 69.2978C31.7608 69.2978 32.4779 69.4645 33.11 69.7978C33.7421 70.1312 34.2284 70.6133 34.5687 71.2443C34.8726 70.649 35.3467 70.1788 35.9909 69.8336C36.6352 69.4764 37.3281 69.2978 38.0696 69.2978Z" fill="url(#paint3_linear_961_11218)"/>
<path d="M45.9111 68.155C45.5343 68.155 45.2182 68.03 44.963 67.78C44.7077 67.53 44.58 67.2205 44.58 66.8514C44.58 66.4824 44.7077 66.1728 44.963 65.9228C45.2182 65.6728 45.5343 65.5478 45.9111 65.5478C46.2758 65.5478 46.5857 65.6728 46.841 65.9228C47.0963 66.1728 47.2239 66.4824 47.2239 66.8514C47.2239 67.2205 47.0963 67.53 46.841 67.78C46.5857 68.03 46.2758 68.155 45.9111 68.155ZM46.9322 69.4586V79.2978H44.8535V69.4586H46.9322Z" fill="url(#paint4_linear_961_11218)"/>
<path d="M52.0863 71.1193V76.5657C52.0863 76.9347 52.1714 77.2026 52.3415 77.3693C52.5239 77.524 52.8278 77.6014 53.2532 77.6014H54.5296V79.2978H52.8885C51.9526 79.2978 51.2354 79.0836 50.737 78.655C50.2386 78.2264 49.9894 77.53 49.9894 76.5657V71.1193H48.8042V69.4586H49.9894V67.0121H52.0863V69.4586H54.5296V71.1193H52.0863Z" fill="url(#paint5_linear_961_11218)"/>
<path d="M66.255 81.5478L64.0305 79.1907C63.4835 79.3455 62.8818 79.4228 62.2254 79.4228C61.0463 79.4228 59.9583 79.155 58.9616 78.6193C57.977 78.0716 57.1929 77.3157 56.6095 76.3514C56.0381 75.3752 55.7525 74.28 55.7525 73.0657C55.7525 71.8514 56.0381 70.7621 56.6095 69.7978C57.1929 68.8336 57.977 68.0836 58.9616 67.5478C59.9583 67.0002 61.0463 66.7264 62.2254 66.7264C63.4166 66.7264 64.5046 67.0002 65.4892 67.5478C66.4859 68.0836 67.27 68.8336 67.8413 69.7978C68.4126 70.7621 68.6983 71.8514 68.6983 73.0657C68.6983 74.2086 68.443 75.2443 67.9325 76.1728C67.4341 77.0895 66.7412 77.8276 65.8538 78.3871L68.8988 81.5478H66.255ZM57.8858 73.0657C57.8858 73.9824 58.0681 74.7919 58.4328 75.4943C58.8096 76.1847 59.3262 76.7205 59.9827 77.1014C60.6391 77.4705 61.3866 77.655 62.2254 77.655C63.0641 77.655 63.8117 77.4705 64.4681 77.1014C65.1245 76.7205 65.635 76.1847 65.9997 75.4943C66.3765 74.7919 66.5649 73.9824 66.5649 73.0657C66.5649 72.149 66.3765 71.3455 65.9997 70.655C65.635 69.9645 65.1245 69.4347 64.4681 69.0657C63.8117 68.6966 63.0641 68.5121 62.2254 68.5121C61.3866 68.5121 60.6391 68.6966 59.9827 69.0657C59.3262 69.4347 58.8096 69.9645 58.4328 70.655C58.0681 71.3455 57.8858 72.149 57.8858 73.0657Z" fill="url(#paint6_linear_961_11218)"/>
<path d="M79.8956 69.4586V79.2978H77.817V78.1371C77.4888 78.5419 77.0573 78.8633 76.5224 79.1014C75.9997 79.3276 75.4406 79.4407 74.8449 79.4407C74.0548 79.4407 73.3437 79.28 72.7116 78.9586C72.0917 78.6371 71.5994 78.1609 71.2347 77.53C70.8822 76.899 70.7059 76.1371 70.7059 75.2443V69.4586H72.7663V74.9407C72.7663 75.8216 72.9912 76.5002 73.441 76.9764C73.8907 77.4407 74.5046 77.6728 75.2826 77.6728C76.0605 77.6728 76.6744 77.4407 77.1241 76.9764C77.586 76.5002 77.817 75.8216 77.817 74.9407V69.4586H79.8956Z" fill="url(#paint7_linear_961_11218)"/>
<path d="M91.8461 74.1371C91.8461 74.5062 91.8218 74.8395 91.7732 75.1371H84.0969C84.1577 75.9228 84.4555 76.5538 84.9903 77.03C85.5252 77.5062 86.1816 77.7443 86.9595 77.7443C88.0779 77.7443 88.868 77.2859 89.3299 76.3693H91.5726C91.2687 77.274 90.7156 78.0181 89.9134 78.6014C89.1232 79.1728 88.1386 79.4586 86.9595 79.4586C85.9992 79.4586 85.1362 79.2502 84.3704 78.8336C83.6167 78.405 83.0211 77.8097 82.5835 77.0478C82.1581 76.274 81.9453 75.3812 81.9453 74.3693C81.9453 73.3574 82.152 72.4705 82.5653 71.7086C82.9907 70.9347 83.5803 70.3395 84.3339 69.9228C85.0997 69.5062 85.9749 69.2978 86.9595 69.2978C87.9077 69.2978 88.7525 69.5002 89.494 69.905C90.2355 70.3097 90.8129 70.8812 91.2262 71.6193C91.6395 72.3455 91.8461 73.1847 91.8461 74.1371ZM89.6763 73.4943C89.6642 72.7443 89.3907 72.1431 88.8558 71.6907C88.321 71.2383 87.6585 71.0121 86.8684 71.0121C86.1512 71.0121 85.5373 71.2383 85.0268 71.6907C84.5163 72.1312 84.2124 72.7324 84.1151 73.4943H89.6763Z" fill="url(#paint8_linear_961_11218)"/>
<path d="M97.5384 79.4586C96.7483 79.4586 96.0372 79.3216 95.4051 79.0478C94.7851 78.7621 94.2928 78.3812 93.9282 77.905C93.5635 77.4169 93.369 76.8752 93.3447 76.28H95.4962C95.5327 76.6966 95.7333 77.0478 96.0979 77.3336C96.4748 77.6074 96.9428 77.7443 97.5019 77.7443C98.0854 77.7443 98.5351 77.6371 98.8512 77.4228C99.1794 77.1966 99.3435 76.9109 99.3435 76.5657C99.3435 76.1966 99.1612 75.9228 98.7965 75.7443C98.444 75.5657 97.8787 75.3693 97.1008 75.155C96.3471 74.9526 95.7333 74.7562 95.2592 74.5657C94.7851 74.3752 94.3718 74.0836 94.0193 73.6907C93.679 73.2978 93.5088 72.78 93.5088 72.1371C93.5088 71.6133 93.6668 71.1371 93.9828 70.7086C94.2989 70.2681 94.7487 69.9228 95.3321 69.6728C95.9278 69.4228 96.6085 69.2978 97.3743 69.2978C98.5169 69.2978 99.4347 69.5836 100.128 70.155C100.833 70.7145 101.209 71.4824 101.258 72.4586H99.1794C99.1429 72.0181 98.9606 71.6669 98.6324 71.405C98.3042 71.1431 97.8605 71.0121 97.3014 71.0121C96.7543 71.0121 96.335 71.1133 96.0432 71.3157C95.7515 71.5181 95.6056 71.7859 95.6056 72.1193C95.6056 72.3812 95.7029 72.6014 95.8974 72.78C96.0919 72.9586 96.3289 73.1014 96.6085 73.2086C96.8881 73.3038 97.3013 73.4288 97.8484 73.5836C98.5777 73.774 99.1733 73.9705 99.6352 74.1728C100.109 74.3633 100.517 74.649 100.857 75.03C101.197 75.4109 101.373 75.9169 101.386 76.5478C101.386 77.1074 101.228 77.6074 100.912 78.0478C100.596 78.4883 100.146 78.8336 99.5623 79.0836C98.991 79.3336 98.3163 79.4586 97.5384 79.4586Z" fill="url(#paint9_linear_961_11218)"/>
<path d="M106.057 71.1193V76.5657C106.057 76.9347 106.142 77.2026 106.312 77.3693C106.494 77.524 106.798 77.6014 107.224 77.6014H108.5V79.2978H106.859C105.923 79.2978 105.206 79.0836 104.707 78.655C104.209 78.2264 103.96 77.53 103.96 76.5657V71.1193H102.775V69.4586H103.96V67.0121H106.057V69.4586H108.5V71.1193H106.057Z" fill="url(#paint10_linear_961_11218)"/>
<defs>
<linearGradient id="paint0_linear_961_11218" x1="27.9497" y1="24.2739" x2="78.0147" y2="25.4118" gradientUnits="userSpaceOnUse">
<stop stop-color="#FE2A3F"/>
<stop offset="1" stop-color="#DD1529"/>
</linearGradient>
<linearGradient id="paint1_linear_961_11218" x1="29.114" y1="73.3454" x2="79.1591" y2="78.8277" gradientUnits="userSpaceOnUse">
<stop stop-color="#FE2A3F"/>
<stop offset="1" stop-color="#C50B1D"/>
</linearGradient>
<linearGradient id="paint2_linear_961_11218" x1="29.114" y1="73.3454" x2="79.1591" y2="78.8277" gradientUnits="userSpaceOnUse">
<stop stop-color="#FE2A3F"/>
<stop offset="1" stop-color="#C50B1D"/>
</linearGradient>
<linearGradient id="paint3_linear_961_11218" x1="29.114" y1="73.3454" x2="79.1591" y2="78.8277" gradientUnits="userSpaceOnUse">
<stop stop-color="#FE2A3F"/>
<stop offset="1" stop-color="#C50B1D"/>
</linearGradient>
<linearGradient id="paint4_linear_961_11218" x1="29.114" y1="73.3454" x2="79.1591" y2="78.8277" gradientUnits="userSpaceOnUse">
<stop stop-color="#FE2A3F"/>
<stop offset="1" stop-color="#C50B1D"/>
</linearGradient>
<linearGradient id="paint5_linear_961_11218" x1="29.114" y1="73.3454" x2="79.1591" y2="78.8277" gradientUnits="userSpaceOnUse">
<stop stop-color="#FE2A3F"/>
<stop offset="1" stop-color="#C50B1D"/>
</linearGradient>
<linearGradient id="paint6_linear_961_11218" x1="29.114" y1="73.3454" x2="79.1591" y2="78.8277" gradientUnits="userSpaceOnUse">
<stop stop-color="#FE2A3F"/>
<stop offset="1" stop-color="#C50B1D"/>
</linearGradient>
<linearGradient id="paint7_linear_961_11218" x1="29.114" y1="73.3454" x2="79.1591" y2="78.8277" gradientUnits="userSpaceOnUse">
<stop stop-color="#FE2A3F"/>
<stop offset="1" stop-color="#C50B1D"/>
</linearGradient>
<linearGradient id="paint8_linear_961_11218" x1="29.114" y1="73.3454" x2="79.1591" y2="78.8277" gradientUnits="userSpaceOnUse">
<stop stop-color="#FE2A3F"/>
<stop offset="1" stop-color="#C50B1D"/>
</linearGradient>
<linearGradient id="paint9_linear_961_11218" x1="29.114" y1="73.3454" x2="79.1591" y2="78.8277" gradientUnits="userSpaceOnUse">
<stop stop-color="#FE2A3F"/>
<stop offset="1" stop-color="#C50B1D"/>
</linearGradient>
<linearGradient id="paint10_linear_961_11218" x1="29.114" y1="73.3454" x2="79.1591" y2="78.8277" gradientUnits="userSpaceOnUse">
<stop stop-color="#FE2A3F"/>
<stop offset="1" stop-color="#C50B1D"/>
</linearGradient>
</defs>
</svg>
